<svg xmlns="http://www.w3.org/2000/svg" viewBox="0 0 558.17 104.82"><defs><style>.cls-1{fill:#fff;}</style></defs><g id="Capa_2" data-name="Capa 2"><g id="AnatHomic"><polygon class="cls-1" points="251.55 96.83 251.55 103.49 228.12 103.49 228.12 74.35 236.98 74.35 236.98 96.83 251.55 96.83"/><path class="cls-1" d="M285.59,74.35V94c.5,11.53-13.32,10.35-13.32,10.35C258.8,104.82,259.65,94,259.65,94V74.35h9.09V94c0,4.71,3.88,4.1,3.88,4.1,4.61-.07,3.88-4.1,3.88-4.1V74.35Z"/><polygon class="cls-1" points="321.16 74.52 321.16 81.14 311.47 81.14 311.47 103.66 302.37 103.66 302.37 81.14 293.09 81.14 293.09 74.52 321.16 74.52"/><rect class="cls-1" x="329.13" y="74.59" width="8.92" height="29.14"/><polygon class="cls-1" points="412.1 74.63 412.1 103.77 402.85 103.77 392.05 87.64 392.05 103.77 383.18 103.77 383.18 74.63 392.35 74.63 403.23 90.95 403.23 74.63 412.1 74.63"/><path class="cls-1" d="M205.89,73.45c-8.29,0-14.57,4-14.57,15.45,0,10.46,6.28,15.44,14.57,15.44S220.35,99,220.35,88.9,214.23,73.45,205.89,73.45Zm-.08,24.16c-5.62.15-5.13-8.14-5.13-8.14s-.72-9.36,5.13-9.36c5.49,0,5,8.79,5,8.79S211.45,97.46,205.81,97.61Z"/><path class="cls-1" d="M360.59,73.92c-8.3,0-14.57,4-14.57,15.45,0,10.46,6.27,15.45,14.57,15.45S375,99.45,375,89.37,368.92,73.92,360.59,73.92Zm-.08,24.16c-5.63.16-5.13-8.14-5.13-8.14s-.73-9.36,5.13-9.36c5.48,0,4.95,8.79,4.95,8.79S366.14,97.93,360.51,98.08Z"/><path class="cls-1" d="M180.56,81.48V74.94s-15.75-4.93-18.8,5.53c-1.75,6,5.12,9.81,9.71,12.31,3.27,1.78,3.33,5.7-1.49,5.29-5.34-.47-6.83-1.73-6.83-1.73l-.18,6.72s10.4,3.75,16.64-1.13c5.73-4.47,4.13-10-1.6-13.85-3.15-2.14-4.33-2.58-5.67-3.45-1.58-1-3.78-4.46,1.51-4.87C176.52,79.55,180.56,81.48,180.56,81.48Z"/><path class="cls-1" d="M439.69,81.35V74.8s-15.75-4.93-18.81,5.53c-1.74,6,5.13,9.81,9.72,12.31,3.27,1.78,3.33,5.71-1.49,5.29-5.34-.47-6.84-1.72-6.84-1.72l-.17,6.71s10.4,3.75,16.64-1.13c5.73-4.47,4.13-10-1.6-13.85-3.16-2.14-4.33-2.58-5.68-3.44-1.58-1-3.78-4.47,1.52-4.88C435.64,79.41,439.69,81.35,439.69,81.35Z"/><polygon class="cls-1" points="0 0 14.6 14.55 124.46 14.55 88.71 88.41 103.73 103.56 146.83 14.35 126.84 0.03 0 0"/><path class="cls-1" d="M19.86,19.79l65.59,65.7L104.77,46S58.58,48.83,19.86,19.79Z"/><rect class="cls-1" x="355.1" y="43.95" width="16.61" height="22.5"/><rect class="cls-1" x="499.24" width="12.72" height="7.9"/><rect class="cls-1" x="355.1" width="16.61" height="22.85"/><path class="cls-1" d="M200.61,60.67c-.12-3.81-.12-33.14-.12-33.14.15-12.82-10.43-13.77-10.43-13.77a33.76,33.76,0,0,0-18,.8c-9.89,3.16-8.94,15.29-8.94,15.29h12.45s-.92-8.37,6.61-8.26c.61,0,1.18,0,1.6,0H184c6.43,1,4.33,9.67-2.24,11.61,0,0-17.39,5.55-18.65,14.84s.5,19.78,12.37,19.78c10.76,0,13.13-6.43,13.13-6.43s.53,5,1.36,5h12.44A10,10,0,0,1,200.61,60.67Zm-12.41-12c0,6.77-3.5,10.69-7.84,9.89-7.26-1.33-5.21-12.51-.07-15.06,2.89-1.45,7.91-4.34,7.91-4.34Z"/><path class="cls-1" d="M291.63,60.67c-.12-3.81-.12-33.14-.12-33.14.15-12.82-10.42-13.77-10.42-13.77a33.8,33.8,0,0,0-18,.8c-9.89,3.16-8.94,15.29-8.94,15.29h12.44s-.91-8.37,6.62-8.26c.61,0,1.18,0,1.6,0H275c6.43,1,4.33,9.67-2.24,11.61,0,0-17.39,5.55-18.65,14.84s.5,19.78,12.36,19.78c10.77,0,13.13-6.43,13.13-6.43s.54,5,1.37,5h12.44A10,10,0,0,1,291.63,60.67Zm-12.41-12c0,6.77-3.5,10.69-7.84,9.89-7.27-1.33-5.21-12.51-.07-15.06,2.89-1.45,7.91-4.34,7.91-4.34Z"/><path class="cls-1" d="M209.84,14.35v52.1h12.83V31.83s-.22-9.28,6-8.66c5.82.1,5.37,6.74,5.37,6.74l.05,36.54s9.45-4.9,12.34-9.57l0-32.06s.58-10.44-9.89-11.7-14.11,6.5-14.11,6.5V14.35Z"/><path class="cls-1" d="M298.08,14.35v9h5V56.56s-.42,9.74,7.61,10c3,.11,11-9.5,11-9.5a7.53,7.53,0,0,1-4.35-.55c-1.72-1-1.39-4.05-1.39-4.05l0-29.2h5.31v-9h-5.31V0L303.16,14.29Z"/><path class="cls-1" d="M399.32,12.49c-16,0-19.52,8.75-19.48,26.36,0,20.21,3.46,28.54,19.48,28.54,13,0,19.48-5,19.51-26.63C418.8,23.14,416.47,12.49,399.32,12.49Zm0,45.65c-6.55,0-6.43-5.89-6.43-18.79,0-13.32,0-17.54,6.43-17.54,7,0,6.39,7.34,6.35,18.11C405.67,51.1,406.28,58.14,399.32,58.14Z"/><path class="cls-1" d="M546,46c0,7.88-.27,12.27-5,12.65-7,.56-6.43-5.89-6.43-18.79,0-13.32,0-17.47,6.43-17.54,3.65,0,4.64,3.66,4.84,9.87h12.34C558.69,22.24,555,13,540.93,13c-16,0-19.52,8.75-19.48,26.36,0,20.21,3.46,28.55,19.48,28.54,11.33,0,17.76-5.91,17.18-21.92Z"/><path class="cls-1" d="M427.15,14.38l.05,52.1h12.63l0-36s-.09-7.16,6.45-7S452,30.09,452,30.09l.18,36.37c6.54-2.53,12.62-10,12.62-10l0-25.27s-.26-7.77,6.12-7.78a5.72,5.72,0,0,1,6.1,5.88l.21,37.17c7-2.89,12.52-9.84,12.52-9.84L489.69,25s.45-11.7-11.81-12c-11-.42-14.08,6.55-14.08,6.55S462,13.1,452.41,13c-10.48-.39-13.35,7.29-13.35,7.29L439,14.36Z"/><rect class="cls-1" x="499.24" y="14.35" width="12.72" height="52.1"/><polygon class="cls-1" points="371.71 25.28 371.71 41.5 345.87 41.5 345.87 66.45 329.26 66.45 329.26 0 345.87 0 345.87 25.28 371.71 25.28"/></g></g></svg>