<svg width="264" height="228" viewBox="0 0 264 228" fill="none" xmlns="http://www.w3.org/2000/svg">
<ellipse cx="133" cy="76.5" rx="73" ry="70.5" fill="#C4C4C4"/>
<path d="M18 0H245L246 171H18V0Z" fill="url(#paint0_linear_9_2)"/>
<g filter="url(#filter0_b_9_2)">
<path d="M132 0L246.315 171H17.6846L132 0Z" fill="url(#paint1_linear_9_2)"/>
<path d="M132 0L246.315 171H17.6846L132 0Z" fill="url(#paint2_linear_9_2)"/>
<path d="M18.6203 170.5L132 0.899658L245.38 170.5H18.6203Z" stroke="#132270"/>
</g>
<path d="M131.9 116L131.9 1.70999" stroke="#132270"/>
<line x1="110" y1="33.5" x2="154" y2="33.5" stroke="#132270"/>
<line x1="96" y1="54.5" x2="168" y2="54.5" stroke="#132270"/>
<path d="M82.5 74.5L181.5 74.5" stroke="#132270"/>
<path d="M67.996 96.5L131.748 96L195.5 95.5" stroke="#132270"/>
<path d="M55 115.5H209" stroke="#132270"/>
<path d="M82 154H74.8182V130.727H82.3182C84.5758 130.727 86.5076 131.193 88.1136 132.125C89.7197 133.049 90.9508 134.379 91.8068 136.114C92.6629 137.841 93.0909 139.909 93.0909 142.318C93.0909 144.742 92.6591 146.83 91.7955 148.58C90.9318 150.322 89.6742 151.663 88.0227 152.602C86.3712 153.534 84.3636 154 82 154ZM77.6364 151.5H81.8182C83.7424 151.5 85.3371 151.129 86.6023 150.386C87.8674 149.644 88.8106 148.587 89.4318 147.216C90.053 145.845 90.3636 144.212 90.3636 142.318C90.3636 140.439 90.0568 138.822 89.4432 137.466C88.8295 136.102 87.9129 135.057 86.6932 134.33C85.4735 133.595 83.9545 133.227 82.1364 133.227H77.6364V151.5ZM97.679 154H94.7244L103.27 130.727H106.179L114.724 154H111.77L104.815 134.409H104.634L97.679 154ZM98.7699 144.909H110.679V147.409H98.7699V144.909ZM118.349 130.727H121.713L129.622 150.045H129.895L137.804 130.727H141.168V154H138.531V136.318H138.304L131.031 154H128.486L121.213 136.318H120.986V154H118.349V130.727ZM147.773 154H144.818L153.364 130.727H156.273L164.818 154H161.864L154.909 134.409H154.727L147.773 154ZM148.864 144.909H160.773V147.409H148.864V144.909ZM181.17 136.545C181.034 135.394 180.481 134.5 179.511 133.864C178.542 133.227 177.352 132.909 175.943 132.909C174.913 132.909 174.011 133.076 173.239 133.409C172.473 133.742 171.875 134.201 171.443 134.784C171.019 135.367 170.807 136.03 170.807 136.773C170.807 137.394 170.955 137.928 171.25 138.375C171.553 138.814 171.939 139.182 172.409 139.477C172.879 139.765 173.371 140.004 173.886 140.193C174.402 140.375 174.875 140.523 175.307 140.636L177.67 141.273C178.277 141.432 178.951 141.652 179.693 141.932C180.443 142.212 181.159 142.595 181.841 143.08C182.53 143.557 183.098 144.17 183.545 144.92C183.992 145.67 184.216 146.591 184.216 147.682C184.216 148.939 183.886 150.076 183.227 151.091C182.576 152.106 181.621 152.913 180.364 153.511C179.114 154.11 177.595 154.409 175.807 154.409C174.14 154.409 172.697 154.14 171.477 153.602C170.265 153.064 169.311 152.314 168.614 151.352C167.924 150.39 167.534 149.273 167.443 148H170.352C170.428 148.879 170.723 149.606 171.239 150.182C171.761 150.75 172.42 151.174 173.216 151.455C174.019 151.727 174.883 151.864 175.807 151.864C176.883 151.864 177.848 151.689 178.705 151.341C179.561 150.985 180.239 150.492 180.739 149.864C181.239 149.227 181.489 148.485 181.489 147.636C181.489 146.864 181.273 146.235 180.841 145.75C180.409 145.265 179.841 144.871 179.136 144.568C178.432 144.265 177.67 144 176.852 143.773L173.989 142.955C172.17 142.432 170.731 141.686 169.67 140.716C168.61 139.746 168.08 138.477 168.08 136.909C168.08 135.606 168.432 134.47 169.136 133.5C169.848 132.523 170.803 131.765 172 131.227C173.205 130.682 174.549 130.409 176.034 130.409C177.534 130.409 178.867 130.678 180.034 131.216C181.201 131.746 182.125 132.473 182.807 133.398C183.496 134.322 183.86 135.371 183.898 136.545H181.17Z" fill="url(#paint3_linear_9_2)"/>
<defs>
<filter id="filter0_b_9_2" x="13.6846" y="-4" width="236.631" height="179" filterUnits="userSpaceOnUse" color-interpolation-filters="sRGB">
<feFlood flood-opacity="0" result="BackgroundImageFix"/>
<feGaussianBlur in="BackgroundImage" stdDeviation="2"/>
<feComposite in2="SourceAlpha" operator="in" result="effect1_backgroundBlur_9_2"/>
<feBlend mode="normal" in="SourceGraphic" in2="effect1_backgroundBlur_9_2" result="shape"/>
</filter>
<linearGradient id="paint0_linear_9_2" x1="132" y1="0" x2="132" y2="171" gradientUnits="userSpaceOnUse">
<stop stop-color="#090234"/>
<stop offset="1" stop-color="#4B3BAD" stop-opacity="0"/>
</linearGradient>
<linearGradient id="paint1_linear_9_2" x1="132" y1="0" x2="132" y2="228" gradientUnits="userSpaceOnUse">
<stop stop-color="#1C84A5"/>
<stop offset="1" stop-color="#1C84A5" stop-opacity="0"/>
</linearGradient>
<linearGradient id="paint2_linear_9_2" x1="132" y1="0" x2="132" y2="228" gradientUnits="userSpaceOnUse">
<stop stop-color="#8D7BFB"/>
<stop offset="1" stop-color="#8D7BFB" stop-opacity="0"/>
</linearGradient>
<linearGradient id="paint3_linear_9_2" x1="132" y1="123" x2="132" y2="158" gradientUnits="userSpaceOnUse">
<stop stop-color="#0057FF"/>
<stop offset="0.958333" stop-opacity="0.35"/>
</linearGradient>
</defs>
</svg>
