<svg width="502" height="406" viewBox="0 0 502 406" fill="none" xmlns="http://www.w3.org/2000/svg">
<rect width="502" height="406" fill="#E5E5E5"/>
<g clip-path="url(#clip0_2_6)">
<rect width="502" height="406" fill="white"/>
<path d="M251 13L423.339 298H78.6609L251 13Z" fill="url(#paint0_linear_2_6)" fill-opacity="0.55"/>
<g style="mix-blend-mode:color-burn" filter="url(#filter0_f_2_6)">
<ellipse cx="251" cy="277.5" rx="135" ry="128.5" fill="#37D6EC"/>
<ellipse cx="251" cy="277.5" rx="135" ry="128.5" fill="#4E5777" fill-opacity="0.2"/>
<ellipse cx="251" cy="277.5" rx="135" ry="128.5" fill="#5D7CAB" fill-opacity="0.2"/>
<ellipse cx="251" cy="277.5" rx="135" ry="128.5" fill="black" fill-opacity="0.2"/>
</g>
<path d="M109.953 382H88.4077V312.182H110.908C117.68 312.182 123.476 313.58 128.294 316.375C133.112 319.148 136.805 323.136 139.374 328.341C141.942 333.523 143.226 339.727 143.226 346.955C143.226 354.227 141.93 360.489 139.339 365.739C136.749 370.966 132.976 374.989 128.021 377.807C123.067 380.602 117.044 382 109.953 382ZM96.8622 374.5H109.408C115.18 374.5 119.964 373.386 123.76 371.159C127.555 368.932 130.385 365.761 132.249 361.648C134.112 357.534 135.044 352.636 135.044 346.955C135.044 341.318 134.124 336.466 132.283 332.398C130.442 328.307 127.692 325.17 124.033 322.989C120.374 320.784 115.817 319.682 110.362 319.682H96.8622V374.5ZM156.99 382H148.126L173.763 312.182H182.49L208.126 382H199.263L178.399 323.227H177.854L156.99 382ZM160.263 354.727H195.99V362.227H160.263V354.727ZM219.001 312.182H229.092L252.82 370.136H253.638L277.365 312.182H287.456V382H279.547V328.955H278.865L257.047 382H249.411L227.592 328.955H226.911V382H219.001V312.182ZM307.271 382H298.408L324.044 312.182H332.771L358.408 382H349.544L328.68 323.227H328.135L307.271 382ZM310.544 354.727H346.271V362.227H310.544V354.727ZM407.464 329.636C407.055 326.182 405.396 323.5 402.487 321.591C399.578 319.682 396.01 318.727 391.783 318.727C388.692 318.727 385.987 319.227 383.669 320.227C381.374 321.227 379.578 322.602 378.283 324.352C377.01 326.102 376.374 328.091 376.374 330.318C376.374 332.182 376.817 333.784 377.703 335.125C378.612 336.443 379.771 337.545 381.18 338.432C382.589 339.295 384.067 340.011 385.612 340.58C387.158 341.125 388.578 341.568 389.874 341.909L396.964 343.818C398.783 344.295 400.805 344.955 403.033 345.795C405.283 346.636 407.43 347.784 409.476 349.239C411.544 350.67 413.249 352.511 414.589 354.761C415.93 357.011 416.601 359.773 416.601 363.045C416.601 366.818 415.612 370.227 413.635 373.273C411.68 376.318 408.817 378.739 405.044 380.534C401.294 382.33 396.737 383.227 391.374 383.227C386.374 383.227 382.044 382.42 378.385 380.807C374.749 379.193 371.885 376.943 369.794 374.057C367.726 371.17 366.555 367.818 366.283 364H375.01C375.237 366.636 376.124 368.818 377.669 370.545C379.237 372.25 381.214 373.523 383.601 374.364C386.01 375.182 388.601 375.591 391.374 375.591C394.601 375.591 397.499 375.068 400.067 374.023C402.635 372.955 404.669 371.477 406.169 369.591C407.669 367.682 408.419 365.455 408.419 362.909C408.419 360.591 407.771 358.705 406.476 357.25C405.18 355.795 403.476 354.614 401.362 353.705C399.249 352.795 396.964 352 394.51 351.318L385.919 348.864C380.464 347.295 376.146 345.057 372.964 342.148C369.783 339.239 368.192 335.432 368.192 330.727C368.192 326.818 369.249 323.409 371.362 320.5C373.499 317.568 376.362 315.295 379.953 313.682C383.567 312.045 387.601 311.227 392.055 311.227C396.555 311.227 400.555 312.034 404.055 313.648C407.555 315.239 410.328 317.42 412.374 320.193C414.442 322.966 415.533 326.114 415.646 329.636H407.464Z" fill="#474EF7" fill-opacity="0.51"/>
</g>
<defs>
<filter id="filter0_f_2_6" x="112" y="145" width="278" height="265" filterUnits="userSpaceOnUse" color-interpolation-filters="sRGB">
<feFlood flood-opacity="0" result="BackgroundImageFix"/>
<feBlend mode="normal" in="SourceGraphic" in2="BackgroundImageFix" result="shape"/>
<feGaussianBlur stdDeviation="2" result="effect1_foregroundBlur_2_6"/>
</filter>
<linearGradient id="paint0_linear_2_6" x1="251" y1="13" x2="251" y2="393" gradientUnits="userSpaceOnUse">
<stop stop-color="#3C72FD"/>
<stop offset="0.9999" stop-color="#3C72FD" stop-opacity="0.213542"/>
<stop offset="1" stop-color="#3C72FD" stop-opacity="0"/>
</linearGradient>
<clipPath id="clip0_2_6">
<rect width="502" height="406" fill="white"/>
</clipPath>
</defs>
</svg>
